<svg xmlns="http://www.w3.org/2000/svg" xmlns:xlink="http://www.w3.org/1999/xlink" viewBox="0 0 500 165"><defs><style>.cls-1{fill:url(#linear-gradient);}.cls-2{fill:url(#linear-gradient-2);}.cls-3{fill:url(#linear-gradient-3);}.cls-4{fill:url(#linear-gradient-4);}.cls-5{fill:#706d6e;}</style><linearGradient id="linear-gradient" x1="60.8" y1="564.11" x2="-5.38" y2="559.65" gradientTransform="translate(36.9 -511.76)" gradientUnits="userSpaceOnUse"><stop offset="0" stop-color="#00c4ff"/><stop offset="1" stop-color="#001973"/></linearGradient><linearGradient id="linear-gradient-2" x1="47.55" y1="68.81" x2="11.45" y2="66.38" gradientTransform="translate(13.53 11.93)" gradientUnits="userSpaceOnUse"><stop offset="0" stop-color="#001973"/><stop offset="1" stop-color="#00c4ff"/></linearGradient><linearGradient id="linear-gradient-3" x1="922.89" y1="4363.03" x2="856.71" y2="4358.57" gradientTransform="translate(940.9 4475.68) rotate(180)" xlink:href="#linear-gradient"/><linearGradient id="linear-gradient-4" x1="909.64" y1="3867.74" x2="873.53" y2="3865.31" gradientTransform="translate(964.26 3951.99) rotate(180)" xlink:href="#linear-gradient-2"/></defs><g id="graphics"><path class="cls-1" d="M90.1,30C90.32,37.89,87,43,80.25,47,72,51.83,63.43,56.82,55.1,61.61,45.87,66.92,43.57,73.42,50.2,82,48,86.7,40.53,85.83,36.39,85.15c-4.64-2.82-6-9-5.73-14,.37-7.18,4.18-14,9.39-18.86q25-18.82,50-37.56Q90.06,22.31,90.1,30Z"/><path class="cls-2" d="M50.2,82s-1-.82-2.67-2.3c-7.87-7-18.14-17.86-7.48-27.43a45.78,45.78,0,0,0-9,9.27C23.53,71.61,25,87.86,25.36,100c.17,5.83,7,7.12,11.43,4.79,4.82-2.56,10-5.44,14.63-8C58.58,93,55.06,85.89,50.2,82Z"/><path class="cls-3" d="M25.6,135.05c-.22-7.94,3.1-13.07,9.86-17,8.27-4.85,16.82-9.84,25.15-14.63,9.22-5.31,11.52-11.81,4.9-20.37,2.15-4.72,9.66-3.85,13.81-3.17,4.64,2.83,6,9,5.73,14-.38,7.18-4.18,14-9.39,18.86q-25,18.82-50,37.56Q25.65,142.69,25.6,135.05Z"/><path class="cls-4" d="M65.51,83s1,.82,2.66,2.3c7.88,7,18.14,17.86,7.49,27.43a46.27,46.27,0,0,0,9-9.26c7.54-10.1,6.08-26.35,5.71-38.47-.18-5.83-7.06-7.12-11.44-4.79-4.82,2.56-10,5.44-14.62,8C57.13,72,60.65,79.11,65.51,83Z"/><path class="cls-5" d="M113.78,95.09l12.28-6.41a13.73,13.73,0,0,0,12.81,8.17c3.28,0,5.71-.63,7.31-1.88a6.19,6.19,0,0,0,2.39-5.16,6.3,6.3,0,0,0-2.6-5.33c-1.73-1.29-4.45-2.28-8.18-3Q127.05,79.43,122,74.85T117,62.2q0-9.21,6.49-14.71T140.63,42a26.43,26.43,0,0,1,12.72,2.94,21.22,21.22,0,0,1,8.57,8.39l-12,6.18a12.11,12.11,0,0,0-4.1-4.44,11.48,11.48,0,0,0-6-1.38,10.13,10.13,0,0,0-6.52,1.85,5.74,5.74,0,0,0-2.28,4.65,5.52,5.52,0,0,0,2.26,4.58c1.5,1.15,4.32,2.09,8.44,2.82Q152,69.41,157.3,74.4t5.26,13.51q0,9.66-6.19,15.32t-17.64,5.66a30.69,30.69,0,0,1-14.95-3.63A23.64,23.64,0,0,1,113.78,95.09Z"/><path class="cls-5" d="M164.91,107.76V43.07h22.92q17.23,0,25.85,7.87T222.3,74.6q0,15.12-9.41,24.14t-25.06,9Zm14.57-52.6V95.67h7.22q9.48,0,14.87-5.61T207,74.78q0-9.15-5.35-14.39t-15-5.23Z"/><path class="cls-5" d="M221.22,97.25l10.92-6.4a12.69,12.69,0,0,0,4.26,5,11.73,11.73,0,0,0,6.84,1.92,11,11,0,0,0,7-2.19A7.59,7.59,0,0,0,253,89.18a7.29,7.29,0,0,0-3.77-6.61q-3.76-2.28-10.35-2.33h-5.28V69.14h4.83c4.21,0,7.36-.7,9.47-2.12s3.16-3.65,3.16-6.72A6.6,6.6,0,0,0,248.86,55a8.26,8.26,0,0,0-5.49-1.88,11,11,0,0,0-5.7,1.56,11.94,11.94,0,0,0-4.4,4.89l-10.6-5.09a22.58,22.58,0,0,1,8.54-8.82A25.88,25.88,0,0,1,245,42.07q9.93,0,15.3,4.49T265.62,59a15.45,15.45,0,0,1-2.85,9.25A16.32,16.32,0,0,1,254.2,74v.22A16.15,16.15,0,0,1,264,79.45a14.63,14.63,0,0,1,3.59,9.91q0,9.06-6.48,14.34t-17,5.28q-8.44,0-14.08-3A21.52,21.52,0,0,1,221.22,97.25Z"/><path class="cls-5" d="M314.77,104.47a16.77,16.77,0,0,1-5.23,3.18,18,18,0,0,1-6.77,1.24q-7.93,0-11.77-3.65t-3.84-10.92V72.08h-7.49V61.56h7.49V49.79l14.21-2.53v14.3h11.1V72.08h-11.1V94.23a4.79,4.79,0,0,0,.93,3.2,3.24,3.24,0,0,0,2.59,1.09,6.43,6.43,0,0,0,2-.34A6.21,6.21,0,0,0,309,96.8Z"/><path class="cls-5" d="M355.67,88.73H325.53a10.41,10.41,0,0,0,3.09,7.1,10.14,10.14,0,0,0,7.29,2.64,9.7,9.7,0,0,0,5-1.35A13,13,0,0,0,345,93.06l10.47,6a25.1,25.1,0,0,1-8.89,7.51,24.83,24.83,0,0,1-10.92,2.37q-11.46,0-17.87-6.2t-6.4-17.3q0-11.51,6.68-18.23a22.24,22.24,0,0,1,16.42-6.72q10.1,0,15.63,6t5.53,18Zm-13.22-9c0-3.16-.67-5.52-2-7.1a6.7,6.7,0,0,0-5.39-2.37,8.54,8.54,0,0,0-6.57,2.7,12.12,12.12,0,0,0-3,6.77Z"/><path class="cls-5" d="M398.19,107.76H384.7v-5.18h-.18a16.63,16.63,0,0,1-6,4.73,18.28,18.28,0,0,1-7.74,1.58,15.21,15.21,0,0,1-10.15-3.63q-4.29-3.63-4.28-10a14.19,14.19,0,0,1,4.1-10.36q4.11-4.17,12.09-5l12.27-1.31V77.18a6.13,6.13,0,0,0-2.14-5.1,8.25,8.25,0,0,0-5.34-1.72,10.6,10.6,0,0,0-5.64,1.49,14.77,14.77,0,0,0-4.43,4.42l-9.51-5.68a21.55,21.55,0,0,1,7.94-7.06,25.74,25.74,0,0,1,12.9-3.09q9.56,0,14.59,4.91t5,14.8ZM384.79,89V87.24l-9.2.9a7.82,7.82,0,0,0-4.67,1.78,5.12,5.12,0,0,0-1.47,3.86,4.59,4.59,0,0,0,1.63,3.59,6,6,0,0,0,4.11,1.42A9.21,9.21,0,0,0,382.11,96,9.67,9.67,0,0,0,384.79,89Z"/><path class="cls-5" d="M475,107.76H460.79V81.06q0-4.74-1.85-7.11a6.6,6.6,0,0,0-5.55-2.37,6.84,6.84,0,0,0-5.73,3,12,12,0,0,0-2.21,7.37v25.85H431.19V81.15q0-4.79-1.8-7.18a6.41,6.41,0,0,0-5.46-2.39,7,7,0,0,0-5.84,2.82,12.23,12.23,0,0,0-2.19,7.69v25.67H401.64V61.56H415.9v5.78h.18a16.31,16.31,0,0,1,6.2-5,18.56,18.56,0,0,1,8.24-1.94,16.39,16.39,0,0,1,8.41,2,12.41,12.41,0,0,1,5,5.26A19.77,19.77,0,0,1,451,62.24a21.59,21.59,0,0,1,8.93-1.8,13.86,13.86,0,0,1,10.9,4.73Q475,69.91,475,79Z"/></g></svg>